# xmcd
#
# Track frame offsets:
# 150
# 10065
# 24715
# 35349
# 44698
# 55543
# 65916
# 78420
# 88177
# 98111
# 109021
# 121330
# 131446
# 141975
# 152246
# 162357
# 171767
# 185220
# 196630
#
# Disc length: 2755 seconds
#
# Revision: 0
# Processed by: cddbd v1.4PL0 Copyright (c) Steve Scherf et al.
# Submitted via: inCDius 1.1
#
DISCID=050ac113
DTITLE=Wilma Lee and Stoney Cooper and the Clinch Mountain Clan - The Very Bes
DTITLE=t Of
DYEAR=1900
DGENRE=
TTITLE0=I Want To Be Loved (But Only By You)
TTITLE1=The Tramp On The Street
TTITLE2=My Heart Keeps Crying
TTITLE3=Home Sweet Home
TTITLE4=This Thing Called Man
TTITLE5=Cheated Too
TTITLE6=Walking My Lord Up Calvary Hill
TTITLE7=I Tell My Heart
TTITLE8=He Taught Them How
TTITLE9=Come Walk With Me
TTITLE10=Big Midnight Special
TTITLE11=The Wreck On The highway
TTITLE12=There's A Big Wheel
TTITLE13=Six More Miles
TTITLE14=Johnny, My Love (Grandma's Diary)
TTITLE15=This Ole House
TTITLE16=Philadelphia Lawyer
TTITLE17=Singing Waterfall
TTITLE18=There's A Higher Power
EXTD=
EXTT0=
EXTT1=
EXTT2=
EXTT3=
EXTT4=
EXTT5=
EXTT6=
EXTT7=
EXTT8=
EXTT9=
EXTT10=
EXTT11=
EXTT12=
EXTT13=
EXTT14=
EXTT15=
EXTT16=
EXTT17=
EXTT18=
PLAYORDER=
